{"accessors":[{"bufferView":2,"componentType":5126,"count":690,"max":[5.730096817016602,13.368267059326172,0.8501337170600891],"min":[-5.730096817016602,5.6379194259643555,-0.026538938283920288],"type":"VEC3"},{"bufferView":2,"byteOffset":8280,"componentType":5126,"count":690,"max":[0.9973488450050354,0.9978423714637756,0.9997324347496033],"min":[-0.9973487854003906,-0.9973390102386475,-1],"type":"VEC3"},{"bufferView":3,"componentType":5126,"count":690,"max":[0.9997835159301758,0.9929599761962891,0.9993619322776794,1],"min":[-0.9997835159301758,-0.9734007716178894,-0.9993296265602112,-1],"type":"VEC4"},{"bufferView":1,"componentType":5126,"count":690,"max":[0.3395974636077881,0.9715149998664856],"min":[0.036065757274627686,0.03915122151374817],"type":"VEC2"},{"bufferView":0,"componentType":5125,"count":2964,"max":[689],"min":[0],"type":"SCALAR"},{"bufferView":2,"byteOffset":16560,"componentType":5126,"count":602,"max":[4.34588623046875,13.21830940246582,4.347962379455566],"min":[-4.350038528442383,0.11058568954467773,-4.347962379455566],"type":"VEC3"},{"bufferView":2,"byteOffset":23784,"componentType":5126,"count":602,"max":[0.9995657205581665,0.9941225051879883,0.9995657801628113],"min":[-0.9995657801628113,-1,-0.9995657205581665],"type":"VEC3"},{"bufferView":3,"byteOffset":11040,"componentType":5126,"count":602,"max":[1,0.9955729246139526,1,1],"min":[-1,-0.995529055595398,-0.9999823570251465,1],"type":"VEC4"},{"bufferView":1,"byteOffset":5520,"componentType":5126,"count":602,"max":[0.9884544610977173,0.8486013412475586],"min":[0.4306914806365967,0.05440732091665268],"type":"VEC2"},{"bufferView":0,"byteOffset":11856,"componentType":5125,"count":2928,"max":[601],"min":[0],"type":"SCALAR"}],"asset":{"extras":{"author":"saraelshenawy (https://sketchfab.com/saraelshenawy)","license":"CC-BY-4.0 (http://creativecommons.org/licenses/by/4.0/)","source":"https://sketchfab.com/3d-models/greek-neck-amphora-da267e83e6ff445781d183a850495c91","title":"Greek-Neck amphora"},"generator":"Sketchfab-6.29.0","version":"2.0"},"bufferViews":[{"buffer":0,"byteLength":23568,"byteOffset":0,"name":"floatBufferViews","target":34963},{"buffer":0,"byteLength":10336,"byteOffset":23568,"byteStride":8,"name":"floatBufferViews","target":34962},{"buffer":0,"byteLength":31008,"byteOffset":33904,"byteStride":12,"name":"floatBufferViews","target":34962},{"buffer":0,"byteLength":20672,"byteOffset":64912,"byteStride":16,"name":"floatBufferViews","target":34962}],"buffers":[{"byteLength":85584,"uri":"data:application/octet-stream;base64,"}],"images":[{"uri":"data:application/octet-stream;base64,"},{"uri":"data:application/octet-stream;base64,"},{"uri":"data:application/octet-stream;base64,"}],"materials":[{"doubleSided":true,"emissiveFactor":[0,0,0],"name":"vase","normalTexture":{"index":2,"scale":1,"texCoord":0},"occlusionTexture":{"index":1,"strength":1,"texCoord":0},"pbrMetallicRoughness":{"baseColorFactor":[1,1,1,1],"baseColorTexture":{"index":0,"texCoord":0},"metallicFactor":0,"metallicRoughnessTexture":{"index":1,"texCoord":0},"roughnessFactor":1}}],"meshes":[{"name":"handels_vase_0","primitives":[{"attributes":{"NORMAL":1,"POSITION":0,"TANGENT":2,"TEXCOORD_0":3},"indices":4,"material":0,"mode":4}]},{"name":"body_vase_0","primitives":[{"attributes":{"NORMAL":6,"POSITION":5,"TANGENT":7,"TEXCOORD_0":8},"indices":9,"material":0,"mode":4}]}],"nodes":[{"children":[1],"name":"RootNode (gltf orientation matrix)","rotation":[-0.7071067811865475,0,0,0.7071067811865476]},{"children":[2],"name":"RootNode (model correction matrix)"},{"children":[3],"matrix":[1,0,0,0,0,0,1,0,0,-1,0,0,0,0,0,1],"name":"9472143a83c844c9a8c443ced7d94cdc.fbx"},{"children":[4],"name":"RootNode"},{"children":[5,7],"name":"group2"},{"children":[6],"name":"handels"},{"mesh":0,"name":"handels_vase_0"},{"children":[8],"name":"body"},{"mesh":1,"name":"body_vase_0"}],"samplers":[{"magFilter":9729,"minFilter":9987,"wrapS":10497,"wrapT":10497}],"scene":0,"scenes":[{"name":"OSG_Scene","nodes":[0]}],"textures":[{"sampler":0,"source":0},{"sampler":0,"source":1},{"sampler":0,"source":2}]}